#!OML:ASF G:\ViconDB\ViconDB\414\test\team2\shane.ASF
:FULLY-SPECIFIED
:DEGREES
165
root -2.57348 16.8968 3.95476 -13.4537 34.3366 -7.14169
lowerback 8.21037 1.82479 2.32271
upperback 1.76718 2.66611 0.697271
thorax -2.69713 1.32105 -0.859041
lowerneck -15.6621 -1.71099 -5.10375
upperneck 25.5778 -2.47615 5.86681
head 10.9825 -0.841659 2.66563
rclavicle -6.52014e-014 7.15625e-015
rhumerus -28.4062 7.73307 -94.6624
rradius 32.6004
rwrist 35.6433
rhand -28.9014 -12.0848
rfingers 7.12502
rthumb -2.25646 -42.0526
lclavicle -6.52014e-014 7.15625e-015
lhumerus -41.2842 0.241814 83.8897
lradius 16.1118
lwrist -28.0043
lhand -35.085 5.30544
lfingers 7.12502
lthumb -8.22683 35.1253
rfemur 8.91841 -11.0437 7.19306
rtibia 58.7733
rfoot -3.44373 3.5621
rtoes -13.4876
lfemur 0.446284 16.8181 -15.3257
ltibia 23.3106
lfoot -16.4423 -24.7952
ltoes -0.162373
166
root -2.46028 16.9086 4.0707 -13.8602 35.4126 -7.45806
lowerback 8.21452 1.58508 2.37952
upperback 1.86405 2.35532 0.803477
thorax -2.61084 1.16874 -0.748271
lowerneck -15.6206 -1.82976 -5.60337
upperneck 25.4855 -2.58377 6.1535
head 10.9579 -0.905255 2.83948
rclavicle -1.22253e-014 -4.77083e-015
rhumerus -28.9974 7.13119 -94.1535
rradius 31.9713
rwrist 36.0268
rhand -28.9333 -11.6901
rfingers 7.12502
rthumb -2.28728 -41.6576
lclavicle -1.22253e-014 -4.77083e-015
lhumerus -40.2519 -0.726942 84.975
lradius 16.8153
lwrist -27.2577
lhand -35.2253 5.79179
lfingers 7.12502
lthumb -8.36217 35.6063
rfemur 7.75474 -11.2163 7.41298
rtibia 60.0401
rfoot -4.134 2.18332
rtoes -13.0107
lfemur 1.54332 15.7509 -15.326
ltibia 22.5535
lfoot -16.5156 -24.8088
ltoes 0.0553823
167
root -2.35059 16.9188 4.18544 -14.4175 36.3624 -8.03475
lowerback 8.23207 1.39707 2.60081
upperback 1.9904 2.12992 0.987517
thorax -2.49539 1.05907 -0.658047
lowerneck -15.7614 -1.81051 -5.5062
upperneck 25.4615 -2.5216 5.95901
head 10.9687 -0.889193 2.75974
rclavicle 4.37575e-014 -7.15625e-015
rhumerus -29.4577 6.15342 -93.3709
rradius 31.2531
rwrist 37.3451
rhand -28.9113 -11.6589
rfingers 7.12502
rthumb -2.266 -41.6266
lclavicle 4.37575e-014 -7.15625e-015
lhumerus -38.6469 0.298267 84.6552
lradius 16.6665
lwrist -29.1935
lhand -35.497 5.68253
lfingers 7.12502
lthumb -8.62445 35.4864
rfemur 6.53287 -11.238 7.96652
rtibia 60.9928
rfoot -4.67876 1.19791
rtoes -11.2976
lfemur 2.61486 15.0155 -15.0294
ltibia 21.8299
lfoot -16.7784 -25.0042
ltoes -0.148284
168
root -2.26599 16.9348 4.29343 -15.5055 38.1481 -9.97462
lowerback 8.20084 0.803397 3.4217
upperback 1.90616 1.43092 1.53011
thorax -2.57895 0.707045 -0.488281
lowerneck -15.521 -1.93301 -5.83837
upperneck 25.1207 -2.54791 5.74903
head 10.7989 -0.963796 2.728
rclavicle -6.79222e-014 -5.56597e-015
rhumerus -30.2728 5.94453 -92.6935
rradius 31.0023
rwrist 37.5079
rhand -28.6622 -11.7831
rfingers 7.12502
rthumb -2.02547 -41.7532
lclavicle -6.79222e-014 -5.56597e-015
lhumerus -37.4367 -0.565157 85.8319
lradius 17.2255
lwrist -28.0825
lhand -35.8598 5.907
lfingers 7.12502
lthumb -8.97448 35.6961
rfemur 5.17158 -12.2583 9.75759
rtibia 61.6467
rfoot -5.4494 0.0452504
rtoes -11.6449
lfemur 2.96289 13.8434 -13.7108
ltibia 21.2063
lfoot -16.4627 -26.1951
ltoes 0.177234
169
root -2.15159 16.9291 4.4014 -15.2953 38.8158 -8.89628
lowerback 8.45521 0.893089 2.46273
upperback 2.07739 1.46991 1.37319
thorax -2.56221 0.733175 -0.120117
lowerneck -15.5129 -2.06409 -6.51762
upperneck 25.1411 -2.69614 6.29898
head 10.833 -1.02937 3.0258
rclavicle 1.58158e-014 1.27222e-014
rhumerus -31.0085 5.00934 -91.8986
rradius 30.4475
rwrist 38.0726
rhand -28.7619 -11.4339
rfingers 7.12502
rthumb -2.12173 -41.4031
lclavicle 1.58158e-014 1.27222e-014
lhumerus -35.9928 -0.776804 86.3578
lradius 17.3624
lwrist -28.1639
lhand -36.6224 5.64764
lfingers 7.12502
lthumb -9.71034 35.4038
rfemur 4.17791 -11.5978 8.86112
rtibia 62.1027
rfoot -6.43707 0.00829184
rtoes -11.0379
lfemur 4.34047 13.2681 -14.7871
ltibia 20.57
lfoot -16.7064 -26.0306
ltoes 0.104864
170
root -2.05622 16.9277 4.50881 -15.8619 39.9232 -9.46493
lowerback 8.56298 0.699974 2.52555
upperback 2.17648 1.22973 1.58302
thorax -2.52742 0.615889 0.0854138
lowerneck -15.5404 -2.20223 -6.79492
upperneck 25.0656 -2.80499 6.27482
head 10.8236 -1.10824 3.04751
rclavicle 4.19933e-014 5.96354e-015
rhumerus -31.7597 4.6162 -91.1387
rradius 29.9906
rwrist 38.507
rhand -28.86 -11.924
rfingers 7.12502
rthumb -2.21651 -41.8922
lclavicle 4.19933e-014 5.96354e-015
lhumerus -34.5315 -1.0928 86.9715
lradius 17.6845
lwrist -28.6237
lhand -36.9774 5.7464
lfingers 7.12502
lthumb -10.0529 35.4863
rfemur 2.96822 -11.5348 9.54111
rtibia 62.2749
rfoot -7.2506 -0.316719
rtoes -11.2197
lfemur 5.22647 12.2951 -14.5756
ltibia 20.0156
lfoot -16.9138 -26.2383
ltoes 0.0923489
171
root -1.96065 16.916 4.61953 -16.0139 41.1369 -9.30951
lowerback 8.79511 0.53876 1.78388
upperback 2.18647 0.963392 1.72418
thorax -2.66502 0.486429 0.672975
lowerneck -15.443 -2.25055 -7.08157
upperneck 25.095 -2.80239 6.28875
head 10.8204 -1.13314 3.10301
rclavicle -5.34482e-014 -1.63003e-014
rhumerus -32.7077 3.95946 -90.3633
rradius 29.6719
rwrist 38.4734
rhand -28.687 -11.8625
rfingers 7.12502
rthumb -2.04945 -41.8324
lclavicle -5.34482e-014 -1.63003e-014
lhumerus -33.2131 -1.92653 87.894
lradius 17.9869
lwrist -28.1498
lhand -37.4192 5.97584
lfingers 7.12502
lthumb -10.479 35.6947
rfemur 1.88143 -11.4007 9.52302
rtibia 62.2355
rfoot -8.46874 -0.227946
rtoes -11.7102
lfemur 6.26952 11.5466 -14.9516
ltibia 19.3999
lfoot -17.3415 -26.5011
ltoes -0.645651
172
root -1.86548 16.909 4.73175 -16.492 42.1391 -9.59534
lowerback 8.79678 0.44976 1.69325
upperback 2.41386 0.837499 1.79358
thorax -2.43313 0.427686 0.810299
lowerneck -15.5216 -2.40925 -7.30623
upperneck 24.958 -3.00263 6.45539
head 10.8079 -1.2249 3.17137
rclavicle 3.53775e-014 2.0276e-014
rhumerus -33.5103 3.76839 -89.808
rradius 29.546
rwrist 37.6503
rhand -28.5822 -11.8525
rfingers 7.12502
rthumb -1.94823 -41.8234
lclavicle 3.53775e-014 2.0276e-014
lhumerus -31.4959 -2.15981 88.1906
lradius 18.2645
lwrist -28.6093
lhand -37.5949 5.91748
lfingers 7.12502
lthumb -10.6485 35.6277
rfemur 0.858617 -11.0395 10.0625
rtibia 61.8883
rfoot -9.39856 -0.398509
rtoes -12.4096
lfemur 7.23807 10.9445 -14.8403
ltibia 18.9443
lfoot -17.5106 -26.9767
ltoes -0.537596
173
root -1.77516 16.9033 4.8384 -16.8763 43.278 -9.88043
lowerback 8.89875 0.287377 1.49254
upperback 2.56133 0.608723 1.86638
thorax -2.33937 0.316298 1.0227
lowerneck -15.7336 -2.53203 -7.40582
upperneck 25.0118 -3.14003 6.46764
head 10.8834 -1.29242 3.17485
rclavicle 9.44165e-014 -2.06736e-014
rhumerus -34.1146 2.57928 -88.9422
rradius 28.9225
rwrist 38.6779
rhand -28.6827 -12.1501
rfingers 7.12502
rthumb -2.04524 -42.1201
lclavicle 9.44165e-014 -2.06736e-014
lhumerus -29.9739 -3.44779 88.8659
lradius 18.8259
lwrist -27.6944
lhand -37.8227 5.74691
lfingers 7.12502
lthumb -10.8683 35.4457
rfemur -0.247856 -10.7363 10.601
rtibia 61.3014
rfoot -10.1154 -0.41926
rtoes -12.6718
lfemur 7.99857 9.99725 -14.8666
ltibia 18.5403
lfoot -17.5888 -27.2318
ltoes -0.558294
174
root -1.67934 16.8965 4.94927 -17.301 44.3032 -10.1682
lowerback 8.91884 0.206531 1.43418
upperback 2.70301 0.497126 1.89278
thorax -2.20385 0.2627 1.09491
lowerneck -15.8111 -2.69024 -7.71414
upperneck 24.9761 -3.35976 6.78983
head 10.9155 -1.38147 3.31445
rclavicle -3.75952e-014 1.27222e-014
rhumerus -34.9347 2.15366 -88.3238
rradius 28.5348
rwrist 38.5006
rhand -28.5751 -12.2223
rfingers 7.12502
rthumb -1.94132 -42.1932
lclavicle -3.75952e-014 1.27222e-014
lhumerus -28.4162 -3.81915 89.1781
lradius 19.1018
lwrist -28.1426
lhand -38.0377 5.71
lfingers 7.12502
lthumb -11.0757 35.3978
rfemur -1.21554 -10.2669 11.0921
rtibia 60.4302
rfoot -10.7432 -0.13524
rtoes -11.0626
lfemur 8.76784 9.19436 -14.837
ltibia 18.2878
lfoot -17.8284 -27.5771
ltoes 0.0472757
175
root -1.58678 16.8893 5.05711 -17.6082 45.5019 -10.3262
lowerback 8.99473 0.0546629 1.15359
upperback 2.87258 0.273588 1.93824
thorax -2.06989 0.153185 1.32346
lowerneck -16.1915 -2.84795 -8.20462
upperneck 25.1354 -3.53043 7.17871
head 11.0827 -1.45301 3.52222
rclavicle 5.42154e-014 -3.1408e-014
rhumerus -35.5914 1.1119 -87.3458
rradius 28.1265
rwrist 39.5119
rhand -28.3493 -12.058
rfingers 7.12502
rthumb -1.72327 -42.0308
lclavicle 5.42154e-014 -3.1408e-014
lhumerus -26.8772 -4.12043 89.5173
lradius 19.5121
lwrist -28.6649
lhand -38.208 5.63408
lfingers 7.12502
lthumb -11.2399 35.313
rfemur -2.16007 -10.0937 11.4327
rtibia 59.3249
rfoot -11.3825 -0.220176
rtoes -11.6312
lfemur 9.42339 8.42587 -14.951
ltibia 18.0526
lfoot -17.8953 -28.1117
ltoes 0.0523353
176
root -1.49091 16.8755 5.16488 -18.0746 46.5119 -10.6914
lowerback 9.07962 -0.0928497 0.986438
upperback 2.99023 0.0691427 2.05873
thorax -1.99223 0.0523596 1.56391
lowerneck -16.1373 -2.93065 -8.14106
upperneck 24.9459 -3.62595 7.04158
head 11.0064 -1.50784 3.44139
rclavicle 8.9596e-014 6.36111e-015
rhumerus -36.3644 0.880373 -86.725
rradius 27.7683
rwrist 39.2959
rhand -28.0281 -12.2715
rfingers 7.12502
rthumb -1.41304 -42.2465
lclavicle 8.9596e-014 6.36111e-015
lhumerus -25.6394 -5.89867 90.2455
lradius 20.2199
lwrist -27.5003
lhand -38.3239 5.99756
lfingers 7.12502
lthumb -11.3516 35.6703
rfemur -3.07428 -9.73095 12.0083
rtibia 57.9914
rfoot -12.033 -0.439913
rtoes -11.9441
lfemur 10.1538 7.80133 -14.8383
ltibia 17.8234
lfoot -18.1909 -28.5543
ltoes 0.22007
177
root -1.39624 16.8634 5.27367 -18.4273 47.6329 -10.9754
lowerback 9.10252 -0.217307 0.818112
upperback 3.10747 -0.108376 2.11542
thorax -1.87947 -0.0354989 1.73591
lowerneck -16.2383 -3.06244 -8.25295
upperneck 24.8824 -3.77487 7.05344
head 11.0194 -1.58311 3.44147
rclavicle 5.67887e-014 -3.49861e-014
rhumerus -37.0158 -0.498809 -85.587
rradius 27.2946
rwrist 40.1567
rhand -27.6514 -11.7964
rfingers 7.12502
rthumb -1.04928 -41.7735
lclavicle 5.67887e-014 -3.49861e-014
lhumerus -24.374 -6.44054 90.6307
lradius 20.9869
lwrist -26.817
lhand -38.4327 5.62978
lfingers 7.12502
lthumb -11.4565 35.2967
rfemur -3.93878 -9.4208 12.4289
rtibia 56.42
rfoot -12.8019 -0.6307
rtoes -12.1014
lfemur 10.8422 7.13652 -14.8362
ltibia 17.5555
lfoot -18.4287 -29.0699
ltoes 0.238687
178
root -1.30055 16.8533 5.38466 -18.794 48.6728 -11.3932
lowerback 8.98113 -0.322613 0.797037
upperback 3.21939 -0.25095 2.16897
thorax -1.69294 -0.10609 1.8167
lowerneck -16.3271 -3.17549 -8.41169
upperneck 24.886 -3.91628 7.17685
head 11.0579 -1.64554 3.49385
rclavicle -8.4176e-014 -3.97569e-016
rhumerus -37.7127 -1.58678 -84.5696
rradius 26.7933
rwrist 40.8949
rhand -27.4436 -11.6163
rfingers 7.12502
rthumb -0.848541 -41.5944
lclavicle -8.4176e-014 -3.97569e-016
lhumerus -23.2241 -7.29811 90.9687
lradius 21.6758
lwrist -27.0696
lhand -38.5803 5.80248
lfingers 7.12502
lthumb -11.5989 35.4615
rfemur -4.81736 -8.99354 13.0165
rtibia 54.6259
rfoot -13.4407 -0.975255
rtoes -12.3057
lfemur 11.465 6.31726 -14.7644
ltibia 17.195
lfoot -18.5857 -29.4123
ltoes -0.10268
179
root -1.20147 16.8488 5.49362 -19.4688 49.7295 -12.129
lowerback 8.92792 -0.478879 0.968667
upperback 3.33562 -0.440109 2.30609
thorax -1.53862 -0.198817 1.8801
lowerneck -16.4968 -3.34896 -9.07385
upperneck 24.8394 -4.14568 7.85781
head 11.1269 -1.72733 3.82616
rclavicle 3.46165e-014 3.10104e-014
rhumerus -38.3761 -2.3073 -83.5859
rradius 26.1894
rwrist 41.3818
rhand -27.3435 -11.132
rfingers 7.12502
rthumb -0.751844 -41.1104
lclavicle 3.46165e-014 3.10104e-014
lhumerus -22.16 -8.32448 91.3757
lradius 22.5642
lwrist -26.5822
lhand -38.6352 5.64979
lfingers 7.12502
lthumb -11.6519 35.3058
rfemur -5.51007 -8.7714 13.7721
rtibia 52.6163
rfoot -14.2043 -1.33616
rtoes -12.6082
lfemur 12.2188 5.40637 -14.485
ltibia 16.6397
lfoot -18.3623 -29.804
ltoes -0.10091
